<?xml version="1.0" encoding="UTF-8"?>
<svg id="Layer_2" data-name="Layer 2" xmlns="http://www.w3.org/2000/svg" viewBox="0 0 951.49 694.65">
  <defs>
    <style>
      .cls-1 {
        fill: #f22055;
      }

      .cls-2 {
        fill: #242424;
      }
    </style>
  </defs>
  <g id="Layer_1-2" data-name="Layer 1">
    <g>
      <path class="cls-2" d="M255.4,520.75l-28.83,50.86h-108.5c-14.7,0-23.91-15.91-16.54-28.66l16.18-28.02h134.31c2.98,0,4.86,3.22,3.39,5.81Z"/>
      <path class="cls-2" d="M418.2,340.68h-173.63c-7.84,0-14.6-4.79-17.2-12.2-.28-.78-.49-1.57-.64-2.37l-69.07,119.62-6.44,11.16-26.96,46.68h144.67c4.15,0,6.74,4.47,4.72,8.07l-1.88,3.3-32.13,56.68h50.14c1.52,0,2.94-.81,3.69-2.14l2.01-3.49,126.41-218.92c1.65-2.84-.42-6.38-3.69-6.38ZM177.24,451.74l5.29-9.17c.19-.3.51-.49.87-.49l74.81.04c.78,0,1.25.83.85,1.5l-5.49,9.17c-.19.3-.51.49-.85.49l-74.62-.04c-.76,0-1.23-.83-.85-1.5ZM270.56,474.49l-5.59,9.32c-.17.3-.49.49-.85.49l-105.72-.06c-.78,0-1.25-.85-.85-1.52l5.57-9.32c.19-.28.51-.47.85-.47l105.74.06c.78,0,1.25.83.85,1.5Z"/>
      <path class="cls-2" d="M607.79,7.59l-349.61,280.52c-3.68,2.95-8.72-1.37-6.36-5.46l23.29-40.34L409.46,9.57c3.41-5.91,9.74-9.57,16.56-9.57h179.1c4.03,0,5.81,5.07,2.67,7.59Z"/>
      <path class="cls-2" d="M932.35,571.6h-176.11c-6.84,0-13.15-3.64-16.56-9.55l-121.1-209.77-6.29-10.87c-1.05-1.81-.63-4.12,1-5.44l88.93-72.58c6.06-4.94,8.28-12.9,5.64-20.25-2.61-7.37-9.36-12.12-17.18-12.12h-168.14c-3.28,0-5.34-3.56-3.69-6.4l16.35-28.3,103.11-178.56c1.64-2.84,5.75-2.84,7.39,0l129.55,224.38-.3.19h.4l50.18,86.93,123.39,213.69c7.35,12.75-1.84,28.66-16.56,28.66Z"/>
      <path class="cls-1" d="M635.4,0l-110.05,190.62-23.93,41.43c-2.65,4.58.66,10.31,5.95,10.31h183.31c6.47,0,9.36,8.11,4.35,12.2l-388.43,317.09h-1.26l133.98-232.05c2.65-4.58-.66-10.31-5.95-10.31h-188.79c-6.49,0-9.37-8.17-4.3-12.24L635.4,0Z"/>
      <path class="cls-2" d="M236.57,665.59c-.95,0-1.91-.24-2.8-.74-2.73-1.55-3.69-5.02-2.14-7.75l99.27-175.08c1.55-2.73,5.02-3.69,7.75-2.14,2.73,1.55,3.69,5.02,2.14,7.75l-99.27,175.08c-1.05,1.85-2.97,2.88-4.95,2.88Z"/>
      <path class="cls-2" d="M228.99,694.65c-11.15,0-20.23-9.08-20.23-20.23s9.08-20.23,20.23-20.23,20.23,9.08,20.23,20.23-9.08,20.23-20.23,20.23ZM228.99,665.55c-4.89,0-8.86,3.98-8.86,8.86s3.98,8.86,8.86,8.86,8.86-3.98,8.86-8.86-3.98-8.86-8.86-8.86Z"/>
      <g>
        <path class="cls-2" d="M36.59,503.57h87.67l-6.55,11.37H36.59c-3.14,0-5.68-2.54-5.68-5.68s2.54-5.68,5.68-5.68Z"/>
        <path class="cls-2" d="M20.19,529.49c-3.46,0-6.88-.9-9.97-2.65-9.69-5.52-13.1-17.89-7.58-27.59,5.51-9.7,17.89-13.1,27.59-7.58h0c9.7,5.52,13.1,17.89,7.58,27.59-2.67,4.7-7.01,8.07-12.22,9.5-1.78.49-3.59.73-5.39.73ZM20.24,500.39c-3.09,0-6.09,1.61-7.72,4.48-2.42,4.25-.92,9.67,3.32,12.09,2.06,1.17,4.45,1.47,6.73.84,2.28-.63,4.18-2.11,5.36-4.16,2.42-4.25.93-9.67-3.32-12.09h0c-1.38-.78-2.88-1.16-4.37-1.16Z"/>
      </g>
      <path class="cls-2" d="M226.57,571.61h13.07l-18.09,31.9c-1.04,1.86-2.97,2.88-4.94,2.88-.95,0-1.91-.23-2.8-.74-2.73-1.53-3.69-5-2.14-7.75l14.91-26.29Z"/>
      <path class="cls-2" d="M209.02,635.45c-11.15,0-20.23-9.08-20.23-20.23s9.08-20.23,20.23-20.23,20.23,9.08,20.23,20.23-9.08,20.23-20.23,20.23ZM209.02,606.36c-4.89,0-8.86,3.98-8.86,8.86s3.98,8.86,8.86,8.86,8.86-3.98,8.86-8.86-3.98-8.86-8.86-8.86Z"/>
    </g>
  </g>
</svg>